PathFileType	4	(X/Y/Z)	3_2_10_p0_0-329.trc
DataRate	CameraRate	NumFrames	NumMarkers	Units	OrigDataRate	OrigDataStartFrame	OrigNumFrames
59.0	59.0	7	27	m	59.0	206	330
Frame#	Time	RHip			RKnee			RAnkle			RBigToe			RSmallToe			RHeel			LHip			LKnee			LAnkle			LBigToe			LSmallToe			LHeel			Neck			Head			Nose			RShoulder			RElbow			RWrist			RThumb			RIndex			RPinky			LShoulder			LElbow			LWrist			LThumb			LIndex			LPinky			
		X1	Y1	Z1	X2	Y2	Z2	X3	Y3	Z3	X4	Y4	Z4	X5	Y5	Z5	X6	Y6	Z6	X7	Y7	Z7	X8	Y8	Z8	X9	Y9	Z9	X10	Y10	Z10	X11	Y11	Z11	X12	Y12	Z12	X13	Y13	Z13	X14	Y14	Z14	X15	Y15	Z15	X16	Y16	Z16	X17	Y17	Z17	X18	Y18	Z18	X19	Y19	Z19	X20	Y20	Z20	X21	Y21	Z21	X22	Y22	Z22	X23	Y23	Z23	X24	Y24	Z24	X25	Y25	Z25	X26	Y26	Z26	X27	Y27	Z27	
206	3.4915254237288136	0.2100051101574142	0.36625266026987985	0.9267456332742537	0.19879530273271442	0.3758539129438828	1.3723506832229362	0.14977905586163517	0.4708913943234816	1.8237157249362506	0.16659810659948773	0.22705378410302507	1.777393665094594	0.2148514500207893	0.2908915742747192	1.8069021796408429	0.13658921840150218	0.5246527281000841	1.8955599920936927	-0.0055723586802787104	0.35522938257735903	0.9121785316121398	-0.02186154095613845	0.37450135888390557	1.3804819263536983	-0.018130077427040286	0.42218307968197055	1.811494180827284	0.019903697727183523	0.22225331172854784	1.7897479121386621	-0.04442481272564492	0.2685124224661895	1.8033309277181042	-0.015985427760957207	0.49248553671977446	1.8709732213521524	0.12183937575722345	0.3620332795482225	0.43714309740170015	0.1462963489684842	0.2308306717353927	0.1679197561594891	0.14751774041916696	0.22132266607060427	0.3453372826640229	0.2962828243808134	0.38909760887597833	0.48533465333734294	0.3771094747613534	0.45490030577314394	0.7200377166899156	0.3395700629977635	0.23806402972144675	0.844675055913419	0.2633429512755405	0.1096749068486626	0.8138416620983423	0.2541279734089244	0.0864071578343904	0.8681423675520499	0.23727348487371697	0.17093126803316686	0.9520995617378244	-0.024156114704158117	0.3459258353226233	0.4751511058514304	-0.13204225177661294	0.3835470711267167	0.7048836981316114	-0.09488805748974713	0.17749515526868886	0.8268153699294545	-0.04257563239936459	0.08309261899569823	0.80586025880642	-0.031774241725604814	0.05126941616555923	0.8211701764457516	-0.03908159532191307	0.0709374995271983	0.8862724493820296
207	3.5084745762711864	0.21029350551353718	0.3655457030531005	0.9304005388196472	0.19957102087726766	0.37732850426304615	1.3773514404916622	0.14863839914931246	0.4711212671538647	1.828707702244244	0.1661900344147803	0.22596759194360777	1.785922057929289	0.2109152325886615	0.28890340172573037	1.806107338315299	0.1365021312430189	0.5241171227107547	1.895429754492353	-0.0031836230748011826	0.3689221948184594	0.920525912943628	-0.02184026621483548	0.3746663621842982	1.3809001810405068	-0.018166509295386143	0.42200035042484435	1.811398130254568	0.020058027174870787	0.22171573620704418	1.7893998268712559	-0.04428989442534828	0.26452906405291626	1.8010001032018497	-0.023183395675311174	0.5092641618823459	1.880907131888909	0.12177859862316681	0.36195128923130554	0.4371612028217179	0.14625813906385368	0.2307280480176682	0.16795169174919045	0.14504306134096367	0.21021006962619973	0.34444855681856335	0.29622681759626196	0.38904425415306565	0.4853098002278397	0.3772995369297905	0.45450049057005876	0.7199946275336165	0.33951143675123646	0.2376981517273416	0.8445667943317471	0.24843418108005091	0.13656444021887246	0.8176449901509338	0.24515129801716098	0.09741862403476692	0.8681888158609882	0.23562322625346668	0.17155947064098478	0.941477409635511	-0.024141149586015705	0.3458635132936826	0.4751792365167206	-0.13207125455179877	0.3836006047203622	0.7048499221451614	-0.09344328536823972	0.18874019430907163	0.8296377748023619	-0.04103361381506124	0.09479907778561915	0.8082533134967909	-0.029242538849424824	0.0628887352584656	0.8283325069316426	-0.03916775280865867	0.07126945831993414	0.8864323052192837
208	3.5254237288135593	0.2100316590456391	0.3657140449932674	0.9306566238427972	0.20257695424797575	0.3900868005018678	1.3827269884290811	0.15044208206422963	0.4727420491605072	1.8293223537355285	0.16176522084224504	0.22366858714411172	1.7848665270735022	0.21079779055662085	0.28903144135464665	1.806228495431326	0.1365657227541697	0.524499517909643	1.8956910606831512	-0.009302888447668653	0.35607783237448365	0.9257883492924672	-0.021942329369119478	0.3745679699602669	1.3808485124093486	-0.018126741097879005	0.42217432680489364	1.81150909151261	0.020570767247246557	0.2201286117893134	1.7932721904411273	-0.04370588297806249	0.2665801090657395	1.8067518228411041	-0.020188492045676038	0.5257537845213114	1.8941518416047511	0.12172960304586247	0.3618181411335038	0.43722897584114256	0.14620380572387667	0.23088026122011274	0.16799829997175428	0.1446801837783163	0.21044324036824574	0.3445083422037099	0.29622332333930057	0.38900681847447716	0.48562185959970433	0.38131948637876123	0.4400023727529512	0.7202786383087483	0.33600225844326037	0.2282750521354156	0.8384955943037143	0.24347698381589558	0.148182255263839	0.8201464878830539	0.2346774109740455	0.08354280484190234	0.8612218453398307	0.22875122053541275	0.17377918826392647	0.9496803691235816	-0.024119638982525407	0.345889155579558	0.47516800624037253	-0.13217361008103	0.3835046506731976	0.7047116471597358	-0.09482821078372425	0.1795954589672443	0.8270343439972686	-0.03126445947619143	0.08602226991614184	0.8020444534057555	-0.029092612283809893	0.06307303568806075	0.8282861409659219	-0.0391605485016429	0.07123468361101706	0.8865638300717958
209	3.542372881355932	0.21059418049961112	0.366988328029264	0.935126459225012	0.20187738131884486	0.38858957630933655	1.3776484859204718	0.14975516051916019	0.4707724122730059	1.8238660695507267	0.16167170998984576	0.22362339372110535	1.7847501521239237	0.21058427335532662	0.28858513653910056	1.805879753026128	0.13660692926135026	0.5243052795441175	1.895605458402192	-0.008935754354570764	0.3572916567827012	0.9310989221746475	-0.02185158225166492	0.3747893401886867	1.381027556016715	-0.01813579272441644	0.42212581274280164	1.8114934946389283	0.021920637110966996	0.20440142417237106	1.783632566935047	-0.04426956563403299	0.26455994572655656	1.801211684811296	-0.014242687987716178	0.5051243602124142	1.8784208266079845	0.12175089380672961	0.3619159040179121	0.43734175171541134	0.1461258852294647	0.23027354547529463	0.17110700274355972	0.1424743815561953	0.19967511780431632	0.3437838510327191	0.2960395141340483	0.3888662581885394	0.489598161369959	0.38166203181446895	0.4390398872810087	0.7241993012118102	0.3317612761943858	0.22574539542757605	0.8380672804143527	0.2336368372016852	0.1724549974183219	0.8279549211402257	0.20715583877355975	0.1278504838442135	0.8788804581608127	0.22338554988800263	0.1811332830799338	0.9489188757555841	-0.024453497132303343	0.34559217734863096	0.4785146392516667	-0.13263842593842065	0.3831390713403784	0.7083621854851369	-0.09098730827404315	0.1801627476193166	0.8274603705051438	-0.02767585438493182	0.08814568985754032	0.8018070888646035	-0.029575325718311295	0.06255659731447978	0.8213063644030097	-0.03747029691192942	0.08051576983287081	0.8892920128500414
210	3.559322033898305	0.2102146036983294	0.36765872288225426	0.931359120218204	0.20179207066398053	0.3886325175014839	1.3777262721976153	0.1498026137566139	0.4709075612807841	1.8238151791914878	0.164001460078586	0.23612579634690128	1.792048204468076	0.21049710683006148	0.28934439569742076	1.8063479138798646	0.13666993655403664	0.5244510075568818	1.8955844358615461	-0.006222282400679912	0.3585687783600214	0.9259478013479878	-0.021881867344283143	0.37470325506622987	1.3809306948544176	-0.018120988673938996	0.42206955447501177	1.8113401312344997	0.02164576915795206	0.23460319770896626	1.7970149497702517	-0.04437127869536973	0.2684539493605884	1.8033096126973645	-0.014286015923625847	0.5044147519404101	1.8776442833597315	0.11651814069811806	0.3746133321071563	0.43894626075508014	0.14628164908387645	0.2300925027270234	0.17082564035879189	0.14472745226917158	0.2098707591294943	0.34784063393718556	0.2959183085249549	0.38889192898263086	0.48944860635758025	0.3813902633555342	0.43897736740899024	0.7275321050548024	0.33101234402573676	0.22483125663345532	0.834502272532624	0.23305848035554985	0.1732691390157674	0.8236325684159539	0.1958829041838104	0.12679397925886365	0.8788128146425612	0.21205035207570558	0.1666977102305671	0.9375525743096895	-0.024440039928788987	0.3456329643260754	0.478387758589803	-0.13211596562591973	0.3833356669547367	0.704673968864856	-0.08367940836443877	0.1793076758401149	0.8271614659273558	-0.0232247474596894	0.09112857673861462	0.7944584457594793	-0.025849921003092434	0.06504258166071088	0.8284116945118684	-0.03148510230823277	0.07072029923153766	0.8900007890685167
211	3.5762711864406778	0.20644822145250583	0.35317116453416575	0.9470080397118907	0.1986725740225701	0.375603083241844	1.3725207986672772	0.14973397626896792	0.4709374689835679	1.8238642746831044	0.16142931001975602	0.22371299905476744	1.784479710098142	0.20500903833903544	0.30268891108983237	1.814662571451972	0.1367276981508048	0.5246111663085348	1.8958023301000684	-0.010851094348060834	0.3566550975076375	0.9427702755548855	-0.023738158678502045	0.3618979330842884	1.3755601874029164	-0.018131641526406818	0.42207968735338247	1.8112425759855753	0.022080862718958812	0.23310812739310774	1.8008993856391535	-0.04507307736524456	0.26678385670453414	1.7979252274771933	-0.0161745317285258	0.4918528260476833	1.8703199704521365	0.1164531837430861	0.37477461315277594	0.4390371382264532	0.14631738118276702	0.22991505174764157	0.1705913153491039	0.14469159150223315	0.20936765870118013	0.35125261940615743	0.29627134316385667	0.39014516282738093	0.4931096488769911	0.3813332267414701	0.439057687937772	0.7277955469360708	0.32342689061409935	0.22703007206257156	0.8392226628282952	0.22633198150974598	0.18190595268811355	0.8141622842947116	0.19566095765713873	0.128192642468132	0.8711656176916854	0.20230859861430456	0.17714462764233674	0.9400443895190976	-0.024419325375798804	0.34571290270461724	0.4783555459479256	-0.13228795229500995	0.3833051097872345	0.7046550521852881	-0.08344925677242716	0.17939185980483685	0.8275100357415076	-0.015495591864986674	0.1167601023179988	0.7948602709033543	-0.0157998923123283	0.07365243132263719	0.8303403285662428	-0.009481127806262968	0.09622050571578679	0.8975662001259763
212	3.593220338983051	0.20930678729229515	0.36581830477911076	0.9507799188379034	0.20163611387831634	0.39039756589934865	1.3874831431718262	0.1505407151329284	0.47310111222791096	1.8293215452403697	0.16235089990150725	0.22541637473394252	1.7766945331460198	0.20546753657364594	0.30321567113030157	1.815018723244907	0.13769074042506282	0.5273700435737586	1.902096826764322	-0.010703217010123377	0.35589837481124237	0.9468342481077815	-0.02167089530558235	0.3737546889178147	1.3857739388469135	-0.018003102330575133	0.4221381332160533	1.8114511842576706	0.01652433650599317	0.22996079536085737	1.7902845785138726	-0.045087953047617875	0.267011727791689	1.7982942898694514	-0.008875050220903557	0.5128160915477462	1.8862243230542355	0.11636652246042757	0.37482159692207345	0.43902150937983225	0.14632468804202983	0.2301054778505995	0.17080894842434668	0.1446405554396695	0.21007882855408103	0.34781468662738674	0.2962602241500048	0.3900332958391121	0.4930862809547849	0.3854820134264996	0.4235946685133289	0.7352369628070986	0.32305757420538156	0.22639058217073466	0.8390579002810434	0.22469893848254316	0.17340655399569543	0.8062119162474125	0.19268764991185286	0.11884229532968267	0.8682057749238264	0.1912517751038326	0.18672512303463737	0.9308772136618637	-0.024173093054703453	0.345894575325497	0.4752199133065658	-0.13222676554389687	0.3833230331837901	0.7047697119995395	-0.07949371648927177	0.18231475426192298	0.8281156438580994	-0.0037478491439634875	0.11921844363214526	0.7915213901487854	-0.00920654925699616	0.06330599479976107	0.8334588058440117	0.000832693441024002	0.08762402451033117	0.8981857108864035
